<svg width="653" height="452" viewBox="0 0 653 452" fill="none" xmlns="http://www.w3.org/2000/svg">
<g clip-path="url(#clip0_77_1389)">
<path opacity="0.2" d="M195.285 58.5987L194.821 58.4819L47.4624 366.1L566.932 406.084L567.517 406.129L586.551 156.413L586.589 155.922L195.285 58.5987ZM344.513 256.425L49.5069 364.54L195.257 60.2812L344.513 256.425ZM345.378 257.351L564.811 404.747L51.083 365.207L345.378 257.351ZM345.649 255.987L196.615 60.1306L584.112 156.507L345.649 255.987ZM566.47 404.455L346.685 256.821L585.31 157.273L566.47 404.455Z" fill="#367CFF"/>
<path d="M652.944 161.613C652.474 173.456 649.136 185.009 643.215 195.285C637.294 205.561 628.965 214.255 618.941 220.624C608.917 226.993 597.496 230.848 585.653 231.858C573.811 232.868 561.899 231.005 550.935 226.426C545.793 224.277 540.917 221.546 536.401 218.285C527.771 212.072 520.588 204.074 515.344 194.839V194.83C509.752 184.952 506.534 173.915 505.942 162.587C505.35 151.259 507.4 139.948 511.932 129.544C516.463 119.139 523.352 109.924 532.059 102.623C540.765 95.3209 551.05 90.1316 562.107 87.4624C573.163 84.7932 584.69 84.7168 595.782 87.2392C606.873 89.7616 617.227 94.8141 626.029 102C634.832 109.185 641.844 118.308 646.513 128.652C651.183 138.995 653.384 150.278 652.943 161.613L652.944 161.613Z" fill="white"/>
<path opacity="0.09" d="M652.944 161.613C652.474 173.456 649.136 185.009 643.215 195.285C637.294 205.561 628.965 214.255 618.941 220.624C608.917 226.993 597.496 230.848 585.653 231.858C573.811 232.868 561.899 231.005 550.935 226.426C545.793 224.277 540.917 221.546 536.401 218.285C527.771 212.072 520.588 204.074 515.344 194.839V194.83C509.752 184.952 506.534 173.915 505.942 162.587C505.35 151.259 507.4 139.948 511.932 129.544C516.463 119.139 523.352 109.924 532.059 102.623C540.765 95.3209 551.05 90.1316 562.107 87.4624C573.163 84.7932 584.69 84.7168 595.782 87.2392C606.873 89.7616 617.227 94.8141 626.029 102C634.832 109.185 641.844 118.308 646.513 128.652C651.183 138.995 653.384 150.278 652.943 161.613L652.944 161.613Z" fill="#367CFF"/>
<path d="M596.817 102.896C596.817 102.896 614.408 103.111 608.343 127.283L606.692 127.364L603.338 127.527" fill="#0C0C0C"/>
<path d="M577.176 152.644C577.258 152.636 577.582 167.713 595.158 167.08C607.325 166.643 612.151 153.975 612.429 153.986C611.132 153.658 608.944 153.169 608.376 152.838C606.505 151.741 604.183 150.585 603.711 146.861C603.439 144.715 604.466 133.831 604.364 131.667L585.58 135.091C585.663 139.657 587.073 150.289 580.617 151.912C579.542 152.18 578.387 152.42 577.176 152.644Z" fill="#E98862"/>
<path opacity="0.52" d="M584.825 147.752C585.153 146.825 585.379 145.866 585.498 144.891C585.789 142.667 585.836 140.417 585.636 138.183C589.441 137.82 593.068 136.4 596.104 134.084C596.4 135.369 598.086 141.009 597.509 142.199C596.427 144.449 591.605 148.014 584.825 147.752Z" fill="#0C0C0C"/>
<path d="M589.089 145.088C596.453 144.562 605.335 140.092 605.644 130.142L605.923 121.167C606.231 111.219 601.239 102.993 591.848 102.703C582.455 102.411 575.183 110.261 574.875 120.209L574.752 124.183C574.733 125.548 574.808 126.914 574.975 128.269C575.392 131.854 576.04 137.304 578.407 141.026C580.641 144.539 584.385 145.422 589.089 145.088Z" fill="#E98862"/>
<path d="M604.967 133.157C607.821 133.245 610.23 130.271 610.318 127.425C610.407 124.579 608.141 122.937 605.287 122.849L603.756 124.711L602.512 133.081L604.967 133.157Z" fill="#E98862"/>
<path d="M575.358 131.273C575.873 131.883 576.534 132.354 577.279 132.645C578.024 132.935 578.83 133.035 579.624 132.935C581.321 132.722 582.447 133.416 583.865 133.277C585.054 133.16 585.26 132.612 587.291 132.492C595.129 132.029 601.01 131.537 601.392 121.73L606.38 117.312C606.38 117.312 608.609 144.489 593.867 148.101C584.809 150.319 576.313 149.509 575.22 141.026C574.333 134.133 575.358 131.273 575.358 131.273Z" fill="#0C0C0C"/>
<path d="M579.072 125.598C579.711 125.598 580.229 125.081 580.229 124.444C580.229 123.806 579.711 123.29 579.072 123.29C578.432 123.29 577.914 123.806 577.914 124.444C577.914 125.081 578.432 125.598 579.072 125.598Z" fill="#0C0C0C"/>
<path d="M589.412 125.383C590.051 125.383 590.57 124.866 590.57 124.229C590.57 123.591 590.051 123.075 589.412 123.075C588.773 123.075 588.255 123.591 588.255 124.229C588.255 124.866 588.773 125.383 589.412 125.383Z" fill="#0C0C0C"/>
<path d="M602.21 128.53C602.21 128.53 601.503 114.434 597.237 113.486C594.396 112.855 587.408 116.763 581.024 115.428C578.232 114.845 575.559 115.487 575.264 116.803C575.147 117.323 572.938 112.705 577.431 107.085C581.007 102.611 592.638 101.353 597.812 102.935C612.14 107.317 605.865 123.48 605.865 123.48L605.134 128.322L602.21 128.53Z" fill="#0C0C0C"/>
<path d="M608.721 117.164C612.938 117.164 616.357 113.755 616.357 109.55C616.357 105.345 612.938 101.936 608.721 101.936C604.504 101.936 601.085 105.345 601.085 109.55C601.085 113.755 604.504 117.164 608.721 117.164Z" fill="#0C0C0C"/>
<g opacity="0.52">
<path opacity="0.52" d="M584.005 132.824H583.987C583.067 132.797 581.528 132.651 581.545 131.965C581.562 131.397 583.297 125.303 583.495 124.61C583.512 124.55 583.552 124.5 583.606 124.469C583.661 124.439 583.725 124.432 583.784 124.449C583.844 124.466 583.895 124.506 583.925 124.56C583.955 124.614 583.963 124.678 583.946 124.738C583.175 127.436 582.025 131.592 582.014 131.977C582.1 132.141 583.047 132.327 584 132.354C584.062 132.354 584.122 132.377 584.166 132.421C584.21 132.464 584.236 132.523 584.236 132.585C584.237 132.647 584.213 132.707 584.17 132.751C584.126 132.795 584.067 132.821 584.005 132.821V132.824Z" fill="#0C0C0C"/>
</g>
<path d="M581.204 120.522C580.254 120.242 579.246 120.222 578.285 120.464C577.812 120.58 577.359 120.766 576.942 121.016C576.528 121.261 576.148 121.558 575.809 121.898C575.75 121.951 575.715 122.024 575.71 122.103C575.706 122.182 575.733 122.259 575.786 122.317C575.838 122.376 575.912 122.411 575.991 122.415C576.07 122.42 576.147 122.393 576.206 122.34L576.224 122.325C576.54 122.041 576.89 121.797 577.267 121.601C577.638 121.405 578.037 121.266 578.449 121.188C579.264 121.03 580.106 121.088 580.89 121.358L580.92 121.369C580.975 121.391 581.034 121.401 581.094 121.399C581.153 121.398 581.212 121.384 581.266 121.36C581.32 121.336 581.369 121.301 581.409 121.257C581.449 121.214 581.481 121.163 581.501 121.107C581.522 121.052 581.531 120.993 581.528 120.933C581.526 120.874 581.511 120.816 581.486 120.763C581.46 120.709 581.425 120.661 581.38 120.622C581.336 120.582 581.285 120.552 581.229 120.532L581.204 120.522Z" fill="#0C0C0C"/>
<path d="M588.024 121.359C588.778 121.014 589.611 120.874 590.437 120.954C590.855 120.99 591.266 121.09 591.654 121.25C592.048 121.409 592.421 121.617 592.762 121.869L592.781 121.882C592.845 121.923 592.922 121.939 592.997 121.925C593.072 121.912 593.138 121.87 593.183 121.809C593.228 121.748 593.248 121.672 593.239 121.596C593.229 121.521 593.191 121.452 593.132 121.404C592.762 121.098 592.354 120.84 591.919 120.636C591.479 120.428 591.01 120.286 590.528 120.216C589.548 120.069 588.546 120.187 587.628 120.559C587.52 120.605 587.435 120.692 587.391 120.801C587.346 120.91 587.347 121.031 587.392 121.139C587.437 121.248 587.523 121.334 587.632 121.379C587.74 121.425 587.862 121.426 587.971 121.383L587.993 121.373L588.024 121.359Z" fill="#0C0C0C"/>
<path d="M634.917 190.29C634.262 195.219 633.624 201.99 633.053 208.99C630.823 211.356 628.439 213.573 625.916 215.625C624.312 216.924 622.657 218.159 620.95 219.33C611.721 225.612 601.18 229.719 590.125 231.342C579.069 232.965 567.789 232.061 557.136 228.697C556.99 222.195 556.792 213.424 556.596 205.389C556.37 196.12 556.143 187.821 556.02 185.094C555.516 174.272 552.639 167.051 554.814 161.146C555.464 159.399 556.509 157.824 557.869 156.544C562.936 151.599 575.524 151.712 580.572 151.907C580.66 151.911 579.1 163.529 595.711 163.389C607.92 163.289 608.836 153.001 608.836 153.001C608.836 153.001 614.852 153.625 618.847 154.317C625.382 155.458 629.631 157.848 632.938 161.417C636.022 164.746 637.842 168.279 634.917 190.29Z" fill="#367CFF"/>
<path d="M537.263 153.053L537.766 140.656C537.777 140.383 537.731 140.111 537.632 139.857C537.532 139.603 537.38 139.373 537.186 139.181C536.991 138.988 536.759 138.838 536.504 138.741C536.248 138.643 535.975 138.599 535.702 138.613C535.198 138.653 534.728 138.879 534.382 139.246C534.036 139.612 533.838 140.094 533.828 140.598L533.72 143.256L530.209 134.743C529.836 133.79 528.766 132.858 527.72 133.346C527.306 133.508 526.959 133.805 526.736 134.189C526.512 134.573 526.426 135.021 526.491 135.46C526.481 135.461 526.471 135.463 526.462 135.466C526.455 135.47 526.449 135.474 526.443 135.479L525.867 134.009C525.76 133.737 525.594 133.492 525.38 133.292C525.166 133.092 524.91 132.942 524.631 132.853C524.351 132.764 524.055 132.738 523.765 132.778C523.474 132.817 523.196 132.921 522.951 133.081C522.57 133.341 522.29 133.724 522.158 134.166C522.026 134.607 522.05 135.08 522.226 135.506L522.471 136.131C522.456 136.147 522.444 136.165 522.435 136.184C522.171 135.8 521.779 135.522 521.329 135.4C520.878 135.278 520.399 135.319 519.976 135.517C519.52 135.747 519.168 136.141 518.99 136.619C518.811 137.097 518.82 137.624 519.015 138.096L519.624 139.65C519.6 139.634 519.572 139.624 519.544 139.62C519.515 139.617 519.486 139.621 519.459 139.631C519.427 139.645 519.4 139.668 519.382 139.696C519.051 139.419 518.638 139.258 518.207 139.237C517.776 139.217 517.349 139.338 516.994 139.582C516.626 139.847 516.358 140.228 516.234 140.663C516.11 141.098 516.137 141.562 516.31 141.98L521.449 155.091C522.168 156.926 523.419 158.504 525.044 159.624C526.668 160.744 528.591 161.355 530.566 161.379C532.269 161.399 533.913 160.756 535.148 159.587C536.383 158.418 537.113 156.815 537.182 155.118L537.263 153.053Z" fill="#E98862"/>
<g opacity="0.2">
<path opacity="0.2" d="M529.923 143.904C529.879 143.922 529.829 143.921 529.785 143.902C529.742 143.883 529.707 143.848 529.689 143.804L526.362 135.703C526.351 135.68 526.345 135.656 526.344 135.632C526.344 135.607 526.348 135.582 526.357 135.559C526.366 135.537 526.379 135.516 526.397 135.498C526.414 135.481 526.435 135.467 526.457 135.457C526.48 135.448 526.505 135.443 526.53 135.444C526.554 135.444 526.579 135.45 526.601 135.46C526.624 135.47 526.644 135.485 526.661 135.503C526.677 135.521 526.69 135.542 526.698 135.566L530.025 143.667C530.035 143.689 530.039 143.712 530.039 143.736C530.039 143.76 530.034 143.784 530.025 143.806C530.016 143.828 530.002 143.847 529.985 143.864C529.968 143.881 529.948 143.894 529.926 143.903L529.923 143.904Z" fill="#0C0C0C"/>
</g>
<g opacity="0.2">
<path opacity="0.2" d="M526.38 145.467C526.336 145.484 526.286 145.483 526.242 145.464C526.199 145.445 526.164 145.41 526.146 145.366L522.433 136.325C522.416 136.28 522.416 136.231 522.435 136.187C522.453 136.144 522.489 136.109 522.533 136.091C522.577 136.075 522.626 136.077 522.669 136.095C522.712 136.113 522.747 136.147 522.767 136.19L526.48 145.231C526.498 145.275 526.498 145.325 526.479 145.37C526.46 145.414 526.425 145.449 526.38 145.467V145.467Z" fill="#0C0C0C"/>
</g>
<g opacity="0.2">
<path opacity="0.2" d="M522.553 147.18C522.508 147.197 522.459 147.196 522.415 147.177C522.371 147.158 522.337 147.123 522.319 147.079L519.357 139.867C519.339 139.823 519.339 139.773 519.357 139.729C519.376 139.684 519.411 139.649 519.456 139.631C519.501 139.613 519.551 139.613 519.595 139.632C519.639 139.65 519.675 139.686 519.693 139.73L522.657 146.94C522.675 146.984 522.674 147.034 522.656 147.079C522.637 147.123 522.602 147.158 522.557 147.176L522.553 147.18Z" fill="#0C0C0C"/>
</g>
<path d="M578.418 172.488L548.161 218.874C547.06 220.56 545.586 221.972 543.852 223.001C541.274 221.583 538.785 220.008 536.401 218.285C531.319 214.629 526.727 210.34 522.736 205.522L516.38 156.388L541.815 152.324L544.715 175.975L556.336 158.162L578.418 172.488Z" fill="#367CFF"/>
<path d="M581.966 135.354C584.741 135.538 587.499 134.794 589.803 133.241C589.883 133.187 589.976 133.157 590.073 133.155C590.169 133.153 590.264 133.177 590.346 133.227C590.429 133.276 590.496 133.348 590.539 133.434C590.582 133.52 590.6 133.616 590.59 133.712C590.404 135.346 589.595 138.353 586.155 138.736C583.934 138.983 582.325 137.282 581.514 136.151C581.458 136.073 581.425 135.98 581.42 135.884C581.415 135.788 581.438 135.693 581.485 135.609C581.533 135.526 581.603 135.457 581.688 135.412C581.773 135.367 581.87 135.347 581.966 135.354Z" fill="white"/>
<path d="M643.122 195.504C638.65 203.19 632.821 210.007 625.916 215.625C624.312 216.924 622.657 218.159 620.95 219.33L609.132 174.5L635.747 167.52L643.122 195.504Z" fill="#367CFF"/>
<path d="M621.208 219.155C621.124 219.21 621.033 219.272 620.95 219.33C620.866 219.388 620.781 219.447 620.697 219.501L611.69 185.349L612.258 185.202L621.208 219.155Z" fill="#0C0C0C"/>
<path d="M556.667 207.5C556.594 207.497 556.525 207.467 556.473 207.416C556.421 207.364 556.39 207.295 556.387 207.222L555.806 194.495C555.802 194.418 555.83 194.342 555.882 194.285C555.935 194.228 556.008 194.194 556.086 194.19C556.163 194.187 556.239 194.214 556.296 194.266C556.354 194.319 556.388 194.392 556.391 194.469L556.972 207.196C556.975 207.273 556.948 207.348 556.896 207.405C556.843 207.463 556.77 207.497 556.693 207.5H556.667Z" fill="#0C0C0C"/>
<path d="M337.774 325.267C379.2 325.267 412.783 291.781 412.783 250.475C412.783 209.168 379.2 175.683 337.774 175.683C296.348 175.683 262.766 209.168 262.766 250.475C262.766 291.781 296.348 325.267 337.774 325.267Z" fill="white"/>
<path opacity="0.09" d="M412.783 250.473C412.783 265.266 408.384 279.726 400.142 292.025C391.9 304.324 380.186 313.91 366.48 319.571C352.774 325.232 337.692 326.713 323.142 323.827C308.592 320.941 295.227 313.818 284.737 303.359C274.247 292.899 267.104 279.572 264.209 265.064C261.315 250.556 262.801 235.518 268.478 221.852C274.155 208.186 283.769 196.505 296.104 188.287C308.439 180.069 322.941 175.682 337.776 175.682C347.636 175.646 357.406 177.556 366.523 181.301C375.64 185.047 383.923 190.555 390.895 197.507C397.867 204.459 403.391 212.719 407.148 221.809C410.904 230.899 412.819 240.641 412.783 250.473Z" fill="#367CFF"/>
<path d="M304.572 206.361C304.572 206.361 303.818 217.652 301.27 221.748C293.936 233.541 291.811 246.807 299.155 253.74C306.5 260.672 353.344 260.767 356.893 244.825C359.879 231.404 353.469 229.961 351.909 218.889C351.203 213.88 349.261 203.375 349.261 203.375" fill="#0A0A0A"/>
<path d="M344.768 242.486C344.687 242.475 343.79 257.322 326.493 256.03C314.518 255.135 310.249 242.467 309.974 242.467C311.265 242.194 313.439 241.796 314.014 241.491C315.9 240.481 318.233 239.43 318.84 235.778C319.192 233.676 318.596 222.908 318.782 220.779L337.162 224.869C336.906 229.365 335.108 239.791 341.408 241.636C342.453 241.939 343.583 242.22 344.768 242.486Z" fill="#E98862"/>
<path opacity="0.5" d="M337.416 237.374C337.129 236.448 336.943 235.494 336.864 234.529C336.662 232.326 336.702 230.107 336.984 227.913C333.248 227.41 329.728 225.873 326.825 223.476C326.484 224.733 324.607 230.225 325.127 231.42C326.111 233.676 330.725 237.374 337.416 237.374Z" fill="#0C0C0C"/>
<path d="M335.04 232.748C327.793 233.449 318.417 230.557 316.474 220.934L314.722 212.251C312.78 202.629 316.274 193.811 325.36 191.987C334.446 190.164 342.813 196.599 344.755 206.224L345.531 210.068C346.277 213.76 347.97 231.501 335.04 232.748Z" fill="#E98862"/>
<path opacity="0.1" d="M330.433 220.141C331.625 219.999 332.507 219.177 332.403 218.305C332.299 217.432 331.247 216.84 330.055 216.982C328.862 217.124 327.98 217.946 328.085 218.818C328.189 219.691 329.24 220.283 330.433 220.141Z" fill="#0C0C0C"/>
<path opacity="0.1" d="M343.035 216.652C343.142 217.522 344.193 218.111 345.385 217.973C345.592 217.949 345.795 217.903 345.991 217.837C346.046 216.798 346.05 215.799 346.02 214.874C345.688 214.792 345.345 214.772 345.006 214.816C343.813 214.955 342.932 215.777 343.035 216.652Z" fill="#0C0C0C"/>
<path opacity="0.5" d="M337.765 219.343H337.783C338.151 219.266 338.515 219.169 338.872 219.051C339.405 218.876 340.102 218.581 340.007 218.1C339.896 217.552 337.196 211.938 336.888 211.3C336.859 211.247 336.811 211.208 336.754 211.19C336.697 211.172 336.635 211.176 336.581 211.202C336.527 211.228 336.485 211.273 336.464 211.329C336.442 211.385 336.443 211.447 336.466 211.502C337.618 213.895 339.473 217.823 339.548 218.192C339.489 218.364 338.604 218.701 337.691 218.884C337.633 218.898 337.582 218.932 337.549 218.982C337.515 219.031 337.502 219.091 337.512 219.149C337.521 219.208 337.553 219.261 337.6 219.297C337.647 219.333 337.706 219.35 337.765 219.344V219.343Z" fill="#0C0C0C"/>
<path d="M307.472 215.368L315.618 213.782C321.771 211.213 323.517 200.523 323.517 200.523C323.517 200.523 331.111 207.734 349.261 203.373C349.261 203.373 345.319 178.109 318.519 185.778C309.877 188.25 303.756 197.033 304.667 208.666C305.304 216.82 307.472 215.368 307.472 215.368Z" fill="#0A0A0A"/>
<path d="M317.63 223.753C314.869 224.307 312.036 221.811 311.483 219.057C310.929 216.303 312.859 214.336 315.62 213.782L317.415 215.341L320.007 223.276L317.63 223.753Z" fill="#E98862"/>
<path d="M338.846 206.823C339.537 206.336 340.345 206.039 341.188 205.965C341.611 205.925 342.038 205.948 342.455 206.035C342.874 206.12 343.282 206.257 343.668 206.443L343.68 206.449C343.722 206.466 343.77 206.466 343.812 206.449C343.855 206.433 343.89 206.4 343.909 206.359C343.929 206.318 343.932 206.27 343.917 206.227C343.903 206.184 343.872 206.147 343.832 206.126C343.424 205.911 342.989 205.748 342.54 205.641C342.088 205.531 341.621 205.49 341.157 205.519C340.216 205.571 339.306 205.873 338.522 206.394C338.491 206.414 338.465 206.439 338.445 206.468C338.424 206.498 338.41 206.531 338.403 206.566C338.396 206.602 338.396 206.638 338.403 206.673C338.41 206.708 338.424 206.742 338.444 206.771C338.464 206.801 338.49 206.826 338.521 206.846C338.551 206.865 338.585 206.878 338.62 206.884C338.656 206.891 338.692 206.889 338.727 206.881C338.762 206.873 338.795 206.858 338.825 206.837L338.83 206.833L338.846 206.823Z" fill="#0C0C0C"/>
<path d="M331.405 207.848C330.48 207.665 329.522 207.733 328.633 208.044C328.193 208.195 327.778 208.412 327.403 208.686C327.029 208.957 326.691 209.273 326.395 209.627C326.365 209.662 326.35 209.708 326.353 209.754C326.356 209.8 326.377 209.844 326.412 209.875C326.446 209.906 326.491 209.923 326.537 209.921C326.584 209.92 326.628 209.901 326.66 209.868L326.669 209.858C326.954 209.538 327.277 209.255 327.633 209.017C327.984 208.777 328.369 208.593 328.776 208.468C329.584 208.216 330.444 208.181 331.269 208.367L331.289 208.372C331.324 208.381 331.36 208.383 331.396 208.378C331.431 208.374 331.465 208.362 331.496 208.343C331.527 208.325 331.553 208.301 331.575 208.272C331.596 208.243 331.611 208.211 331.62 208.176C331.628 208.141 331.629 208.105 331.624 208.07C331.618 208.035 331.605 208.001 331.586 207.971C331.567 207.941 331.542 207.915 331.513 207.894C331.484 207.873 331.451 207.859 331.416 207.851L331.405 207.848Z" fill="#0C0C0C"/>
<path d="M315.623 213.649C321.099 211.616 322.916 207.846 323.476 205.039C323.838 203.168 323.804 201.242 323.377 199.384L323.207 199.431C323.628 201.264 323.661 203.165 323.302 205.012C322.75 207.772 320.96 211.482 315.562 213.485L315.623 213.649Z" fill="#0C0C0C"/>
<path d="M384.857 239.529L388.136 228.437C388.208 228.193 388.33 227.967 388.495 227.773C388.659 227.579 388.862 227.421 389.091 227.31C389.32 227.199 389.57 227.136 389.824 227.126C390.079 227.116 390.333 227.159 390.57 227.252C391.002 227.438 391.35 227.777 391.545 228.203C391.741 228.63 391.771 229.114 391.629 229.561L390.926 231.94L396.578 225.473C397.194 224.742 398.418 224.239 399.193 224.982C399.511 225.249 399.728 225.614 399.81 226.02C399.892 226.425 399.834 226.846 399.645 227.214C399.653 227.218 399.661 227.223 399.668 227.229C399.673 227.234 399.677 227.239 399.681 227.246L400.631 226.119C400.807 225.911 401.027 225.745 401.276 225.632C401.525 225.519 401.795 225.463 402.069 225.468C402.342 225.473 402.61 225.539 402.855 225.66C403.099 225.782 403.314 225.956 403.482 226.171C403.74 226.514 403.872 226.935 403.857 227.364C403.841 227.793 403.678 228.203 403.395 228.526L402.991 229.006C403 229.024 403.005 229.044 403.006 229.064C403.354 228.804 403.784 228.675 404.219 228.702C404.653 228.729 405.064 228.909 405.378 229.209C405.711 229.549 405.905 230.001 405.919 230.476C405.933 230.951 405.766 231.414 405.453 231.772L404.449 232.961C404.475 232.954 404.503 232.954 404.529 232.959C404.555 232.965 404.58 232.977 404.601 232.994C404.624 233.016 404.641 233.044 404.649 233.075C405.025 232.93 405.437 232.911 405.824 233.022C406.211 233.133 406.551 233.369 406.79 233.691C407.036 234.034 407.158 234.45 407.136 234.871C407.115 235.292 406.952 235.694 406.673 236.011L398.205 246.052C397.02 247.456 395.442 248.476 393.672 248.98C391.903 249.484 390.022 249.449 388.272 248.881C386.764 248.391 385.506 247.333 384.766 245.933C384.027 244.533 383.864 242.901 384.313 241.383L384.857 239.529Z" fill="#E98862"/>
<g opacity="0.2">
<path opacity="0.2" d="M394.08 233.645C394.114 233.673 394.157 233.686 394.201 233.682C394.244 233.679 394.285 233.659 394.314 233.626L399.68 227.469C399.71 227.435 399.725 227.391 399.721 227.346C399.718 227.302 399.697 227.26 399.663 227.231C399.63 227.201 399.585 227.187 399.54 227.19C399.496 227.193 399.454 227.214 399.425 227.248L394.058 233.404C394.043 233.421 394.032 233.441 394.025 233.462C394.018 233.483 394.015 233.505 394.017 233.527C394.019 233.549 394.025 233.571 394.035 233.59C394.044 233.61 394.058 233.628 394.075 233.643L394.08 233.645Z" fill="#0C0C0C"/>
</g>
<g opacity="0.2">
<path opacity="0.2" d="M396.738 236.08C396.772 236.108 396.815 236.121 396.859 236.118C396.902 236.114 396.943 236.094 396.972 236.061L402.961 229.19C402.975 229.173 402.987 229.153 402.994 229.132C403.001 229.111 403.003 229.089 403.002 229.067C403 229.045 402.994 229.023 402.984 229.004C402.974 228.984 402.961 228.966 402.944 228.951C402.909 228.924 402.865 228.91 402.821 228.913C402.777 228.916 402.735 228.936 402.705 228.968L396.72 235.84C396.706 235.856 396.694 235.876 396.687 235.897C396.68 235.918 396.678 235.94 396.679 235.962C396.681 235.984 396.687 236.006 396.697 236.026C396.707 236.046 396.72 236.063 396.737 236.078L396.738 236.08Z" fill="#0C0C0C"/>
</g>
<g opacity="0.2">
<path opacity="0.2" d="M399.601 238.734C399.635 238.762 399.679 238.775 399.722 238.771C399.766 238.768 399.807 238.748 399.836 238.715L404.613 233.234C404.64 233.2 404.652 233.157 404.648 233.114C404.644 233.071 404.623 233.031 404.59 233.002C404.558 232.974 404.515 232.959 404.472 232.961C404.429 232.963 404.388 232.981 404.357 233.012L399.58 238.493C399.565 238.51 399.554 238.53 399.547 238.551C399.54 238.572 399.537 238.594 399.539 238.616C399.54 238.638 399.546 238.66 399.556 238.68C399.566 238.699 399.58 238.717 399.597 238.732L399.601 238.734Z" fill="#0C0C0C"/>
</g>
<path d="M404.811 244.371L392.135 301.711C392.106 301.839 392.077 301.974 392.042 302.102C389.195 305.072 386.111 307.807 382.82 310.28C382.159 310.771 381.497 311.256 380.818 311.723C380.398 311.77 379.976 311.793 379.553 311.793C377.294 311.792 375.075 311.199 373.118 310.073C371.162 308.947 369.536 307.327 368.406 305.377L344.249 263.698L366.556 250.849L374.114 263.891L379.653 238.841L404.811 244.371Z" fill="#0CBC8B"/>
<path d="M365.8 270.513C365.724 271.423 365.572 273.047 365.361 275.184C364.308 286.106 361.843 310.45 360.701 321.7C346.278 326.298 330.8 326.454 316.287 322.15H316.281C305.562 318.95 295.699 313.397 287.417 305.897C287.463 295.838 287.317 284.524 286.638 277.25C284.606 255.515 286.527 252.112 289.682 248.966C289.94 248.709 290.209 248.458 290.479 248.213C293.74 245.259 297.832 243.332 303.798 242.526C307.744 241.995 313.681 241.61 313.681 241.61C313.681 241.61 314.185 251.756 326.169 252.316C342.487 253.081 341.398 241.61 341.48 241.61C345.584 241.61 354.717 241.867 360.478 244.792C360.484 244.792 360.484 244.792 360.49 244.797C361.65 245.36 362.706 246.116 363.611 247.033C370.209 254.004 366.954 256.985 365.8 270.513Z" fill="#0CBC8B"/>
<path d="M340.195 221.24C337.84 222.434 335.154 222.811 332.56 222.313C332.47 222.296 332.377 222.305 332.292 222.339C332.207 222.373 332.134 222.43 332.08 222.503C332.027 222.577 331.995 222.665 331.99 222.756C331.985 222.847 332.005 222.937 332.049 223.017C332.824 224.376 334.657 226.699 337.803 225.752C339.835 225.141 340.603 223.057 340.888 221.767C340.907 221.678 340.901 221.585 340.87 221.499C340.838 221.414 340.783 221.339 340.71 221.283C340.637 221.228 340.55 221.194 340.459 221.187C340.367 221.179 340.276 221.198 340.195 221.24Z" fill="white"/>
<path d="M340.342 210.798C340.97 210.798 341.48 210.291 341.48 209.664C341.48 209.038 340.97 208.53 340.342 208.53C339.714 208.53 339.204 209.038 339.204 209.664C339.204 210.291 339.714 210.798 340.342 210.798Z" fill="#0C0C0C"/>
<path d="M329.409 212.707C330.037 212.707 330.547 212.199 330.547 211.573C330.547 210.946 330.037 210.438 329.409 210.438C328.781 210.438 328.271 210.946 328.271 211.573C328.271 212.199 328.781 212.707 329.409 212.707Z" fill="#0C0C0C"/>
<path d="M363.285 295C363.277 295.001 363.27 295.001 363.262 295C363.216 294.994 363.175 294.969 363.147 294.932C363.118 294.895 363.106 294.849 363.113 294.803L365.124 274.598C365.126 274.575 365.134 274.553 365.145 274.533C365.157 274.513 365.172 274.495 365.191 274.481C365.209 274.467 365.231 274.457 365.253 274.452C365.276 274.446 365.299 274.445 365.322 274.449C365.368 274.455 365.41 274.48 365.438 274.517C365.466 274.554 365.478 274.6 365.472 274.646L363.461 294.851C363.455 294.893 363.433 294.931 363.401 294.958C363.369 294.986 363.327 295.001 363.285 295Z" fill="#0C0C0C"/>
<path d="M351.111 294.027L362.104 289.132C362.345 289.025 362.606 288.969 362.87 288.968C363.135 288.967 363.396 289.021 363.638 289.126C363.881 289.231 364.098 289.385 364.278 289.579C364.457 289.772 364.594 290.001 364.68 290.25C364.824 290.715 364.791 291.217 364.585 291.659C364.38 292.101 364.017 292.45 363.567 292.641L361.21 293.691L370.142 293.783C371.138 293.776 372.359 294.401 372.293 295.512C372.296 295.942 372.153 296.359 371.887 296.697C371.621 297.035 371.249 297.273 370.83 297.372C370.832 297.381 370.834 297.391 370.834 297.4C370.833 297.408 370.832 297.415 370.83 297.422L372.361 297.411C372.645 297.41 372.925 297.471 373.182 297.59C373.438 297.71 373.665 297.885 373.845 298.104C374.025 298.322 374.155 298.577 374.223 298.851C374.292 299.125 374.299 299.411 374.243 299.688C374.145 300.123 373.9 300.511 373.549 300.787C373.199 301.063 372.764 301.211 372.317 301.206L371.666 301.211C371.657 301.23 371.645 301.247 371.631 301.262C372.072 301.36 372.463 301.612 372.735 301.972C373.007 302.332 373.142 302.777 373.115 303.227C373.071 303.719 372.843 304.175 372.476 304.506C372.109 304.837 371.631 305.019 371.136 305.014L369.517 305.025C369.54 305.041 369.559 305.062 369.572 305.086C369.585 305.111 369.592 305.139 369.593 305.166C369.591 305.2 369.581 305.231 369.562 305.259C369.93 305.456 370.224 305.768 370.397 306.148C370.57 306.528 370.614 306.954 370.52 307.36C370.414 307.785 370.167 308.161 369.819 308.429C369.472 308.696 369.044 308.839 368.605 308.833L354.946 308.93C353.035 308.944 351.164 308.388 349.572 307.334C347.98 306.28 346.74 304.776 346.011 303.015C345.382 301.497 345.371 299.793 345.982 298.267C346.592 296.741 347.775 295.512 349.28 294.842L351.111 294.027Z" fill="#E98862"/>
<g opacity="0.2">
<path opacity="0.2" d="M361.989 297.325C361.989 297.371 362.007 297.416 362.04 297.448C362.073 297.481 362.118 297.5 362.164 297.5L370.658 297.576C370.705 297.577 370.75 297.558 370.783 297.526C370.816 297.493 370.835 297.449 370.835 297.402C370.836 297.356 370.818 297.311 370.785 297.278C370.752 297.245 370.708 297.226 370.661 297.226L362.166 297.149C362.119 297.149 362.075 297.168 362.042 297.201C362.009 297.234 361.99 297.278 361.99 297.325H361.989Z" fill="#0C0C0C"/>
</g>
<g opacity="0.2">
<path opacity="0.2" d="M361.852 301.061C361.852 301.107 361.87 301.152 361.903 301.185C361.936 301.218 361.981 301.236 362.027 301.236L371.506 301.321C371.553 301.321 371.597 301.303 371.63 301.27C371.663 301.237 371.682 301.193 371.682 301.146C371.68 301.1 371.661 301.056 371.629 301.024C371.596 300.991 371.552 300.972 371.506 300.971L362.027 300.886C361.98 300.886 361.935 300.904 361.902 300.937C361.869 300.97 361.851 301.014 361.851 301.061H361.852Z" fill="#0C0C0C"/>
</g>
<g opacity="0.2">
<path opacity="0.2" d="M361.679 305.102C361.679 305.149 361.698 305.193 361.731 305.226C361.764 305.259 361.808 305.277 361.855 305.277L369.416 305.346C369.463 305.346 369.508 305.327 369.541 305.294C369.574 305.262 369.592 305.217 369.592 305.171C369.592 305.124 369.574 305.08 369.541 305.047C369.508 305.014 369.463 304.995 369.416 304.995L361.855 304.928C361.808 304.928 361.764 304.946 361.731 304.979C361.698 305.012 361.679 305.056 361.679 305.103V305.102Z" fill="#0C0C0C"/>
</g>
<path d="M354.261 313.544L316.287 322.149H316.281C305.562 318.95 295.699 313.397 287.417 305.897C286.527 305.091 285.656 304.266 284.805 303.421C283.322 301.945 281.903 300.409 280.549 298.815L285.865 256.175C286.445 252.738 288.371 249.671 291.218 247.65C294.066 245.628 297.602 244.817 301.049 245.396C304.497 245.974 307.572 247.894 309.6 250.733C311.627 253.573 312.44 257.099 311.86 260.536L308.5 300.573L350.842 291.015L354.261 313.544Z" fill="#0CBC8B"/>
<path d="M299.935 302.145C299.912 302.147 299.888 302.144 299.866 302.137C299.844 302.13 299.824 302.118 299.807 302.103C299.789 302.088 299.775 302.07 299.764 302.049C299.754 302.029 299.748 302.006 299.746 301.983C299.744 301.96 299.747 301.937 299.754 301.915C299.761 301.894 299.773 301.873 299.788 301.856C299.803 301.838 299.821 301.824 299.842 301.814C299.863 301.803 299.885 301.797 299.908 301.795L308.398 299.985C308.421 299.982 308.444 299.983 308.466 299.989C308.489 299.994 308.51 300.004 308.528 300.018C308.547 300.031 308.563 300.048 308.575 300.068C308.587 300.088 308.595 300.11 308.598 300.133C308.601 300.155 308.6 300.179 308.595 300.201C308.589 300.223 308.579 300.244 308.565 300.263C308.552 300.281 308.534 300.297 308.514 300.309C308.495 300.32 308.473 300.328 308.45 300.332L299.957 302.141C299.95 302.143 299.942 302.145 299.935 302.145Z" fill="#0C0C0C"/>
<path d="M354.261 313.544C354.27 313.589 354.262 313.636 354.238 313.675C354.214 313.714 354.176 313.743 354.132 313.754L317.241 322.424C317.007 322.359 316.778 322.295 316.55 322.225L353.874 313.463L350.549 291.279L308.459 300.333C308.431 300.337 308.404 300.335 308.377 300.327C308.351 300.319 308.327 300.305 308.306 300.286C308.289 300.266 308.276 300.241 308.268 300.215C308.26 300.189 308.257 300.162 308.26 300.135L310.619 277.256C310.623 277.233 310.632 277.212 310.644 277.192C310.657 277.173 310.673 277.156 310.692 277.143C310.711 277.13 310.733 277.121 310.755 277.116C310.778 277.111 310.801 277.111 310.824 277.115C310.87 277.122 310.911 277.147 310.938 277.185C310.966 277.222 310.977 277.269 310.97 277.314L308.646 299.96L350.625 290.887C350.648 290.881 350.672 290.88 350.695 290.884C350.718 290.888 350.74 290.897 350.76 290.911C350.78 290.922 350.797 290.936 350.811 290.954C350.826 290.972 350.836 290.993 350.841 291.015L354.261 313.544Z" fill="#0C0C0C"/>
<path d="M68.7785 411.442C106.764 411.442 137.557 380.737 137.557 342.861C137.557 304.986 106.764 274.281 68.7785 274.281C30.7932 274.281 0 304.986 0 342.861C0 380.737 30.7932 411.442 68.7785 411.442Z" fill="white"/>
<path opacity="0.09" d="M68.7785 411.442C106.764 411.442 137.557 380.737 137.557 342.861C137.557 304.986 106.764 274.281 68.7785 274.281C30.7932 274.281 0 304.986 0 342.861C0 380.737 30.7932 411.442 68.7785 411.442Z" fill="#367CFF"/>
<path d="M49.8378 303.963C49.8378 303.963 50.5831 324.618 64.4092 325.567L66.7511 298.33L49.8378 303.963Z" fill="#0A0A0A"/>
<path d="M52.5005 329.787C57.0242 329.787 60.6914 326.13 60.6914 321.619C60.6914 317.109 57.0242 313.452 52.5005 313.452C47.9769 313.452 44.3097 317.109 44.3097 321.619C44.3097 326.13 47.9769 329.787 52.5005 329.787Z" fill="#0A0A0A"/>
<path d="M84.549 335.154C84.4758 335.144 83.6667 348.537 68.0625 347.369C57.2598 346.564 53.4086 335.136 53.1615 335.136C54.3959 334.932 55.6137 334.637 56.8049 334.255C58.5057 333.344 60.6105 332.396 61.1585 329.102C61.4747 327.204 60.939 317.491 61.1035 315.57L77.6854 319.261C77.4512 323.317 75.8318 332.721 81.5156 334.386C82.4606 334.661 83.4793 334.915 84.549 335.154Z" fill="#E98862"/>
<path opacity="0.5" d="M77.9173 330.542C77.6574 329.706 77.4901 328.845 77.4185 327.973C77.2364 325.986 77.2727 323.985 77.5268 322.005C74.1566 321.551 70.9815 320.164 68.3623 318.001C68.0543 319.135 66.3611 324.09 66.8301 325.167C67.7165 327.208 71.881 330.542 77.9173 330.542Z" fill="#0C0C0C"/>
<path d="M75.3196 326.934C68.7523 327.017 60.5421 323.713 59.5246 314.916L58.6065 306.977C57.5884 298.18 61.3969 290.514 69.7037 289.561C78.0099 288.605 85.0432 295.022 86.0614 303.819L86.4677 307.333C86.8582 310.71 87.0374 326.785 75.3196 326.934Z" fill="#E98862"/>
<path d="M84.0871 307.097C84.6559 307.097 85.117 306.637 85.117 306.07C85.117 305.503 84.6559 305.043 84.0871 305.043C83.5183 305.043 83.0573 305.503 83.0573 306.07C83.0573 306.637 83.5183 307.097 84.0871 307.097Z" fill="#0C0C0C"/>
<path d="M73.5607 308.297C74.1295 308.297 74.5906 307.837 74.5906 307.27C74.5906 306.703 74.1295 306.243 73.5607 306.243C72.992 306.243 72.5309 306.703 72.5309 307.27C72.5309 307.837 72.992 308.297 73.5607 308.297Z" fill="#0C0C0C"/>
<path opacity="0.5" d="M78.7844 315.088H78.8008C79.1374 315.047 79.4714 314.987 79.8014 314.91C80.2944 314.79 80.9443 314.58 80.8933 314.14C80.8348 313.639 78.833 308.389 78.6047 307.792C78.5948 307.766 78.5799 307.743 78.5609 307.723C78.5419 307.702 78.5191 307.686 78.4938 307.675C78.4685 307.664 78.4412 307.658 78.4136 307.657C78.3859 307.656 78.3583 307.661 78.3324 307.671C78.3066 307.68 78.2829 307.695 78.2628 307.714C78.2426 307.733 78.2265 307.756 78.2152 307.781C78.2038 307.806 78.1976 307.834 78.1969 307.861C78.1961 307.889 78.2008 307.916 78.2107 307.942C79.0649 310.177 80.4355 313.851 80.4741 314.189C79.9471 314.484 79.3566 314.65 78.7522 314.671C78.6965 314.675 78.6447 314.701 78.6083 314.744C78.5719 314.786 78.5539 314.841 78.5581 314.896C78.5624 314.952 78.5886 315.004 78.6311 315.04C78.6735 315.076 78.7287 315.094 78.7844 315.09V315.088Z" fill="#0C0C0C"/>
<path opacity="0.5" d="M77.2996 318.749C78.6487 318.672 79.9609 318.281 81.1304 317.606C81.1765 317.577 81.2098 317.532 81.2234 317.48C81.2371 317.427 81.2301 317.372 81.2039 317.325C81.1776 317.277 81.1342 317.242 81.0825 317.226C81.0308 317.209 80.9748 317.213 80.9261 317.237C78.4003 318.631 75.9846 318.711 73.9413 317.471C73.9 317.444 73.8574 317.42 73.8137 317.398C73.763 317.379 73.7068 317.379 73.6565 317.4C73.6063 317.421 73.5659 317.46 73.5439 317.509C73.5218 317.559 73.5197 317.615 73.538 317.666C73.5563 317.717 73.5936 317.759 73.6421 317.783C73.6579 317.791 73.6849 317.808 73.7218 317.83C74.796 318.485 76.0418 318.805 77.2996 318.749Z" fill="#0C0C0C"/>
<path d="M51.853 309.233L59.2961 308.42C65.0215 306.577 67.4003 297.095 67.4003 297.095C67.4003 297.095 72.5309 302.912 87.7346 300.256C87.7346 300.256 87.1456 280.712 64.0227 283.463C55.9718 284.422 49.901 292.473 49.8383 302.999C49.795 310.375 51.853 309.233 51.853 309.233Z" fill="#0A0A0A"/>
<path d="M60.3507 317.537C57.8261 317.828 55.4683 315.37 55.1774 312.852C54.8864 310.335 56.7716 308.712 59.2962 308.422L60.7921 309.958L62.521 317.287L60.3507 317.537Z" fill="#E98862"/>
<path d="M80.4449 303.508C81.1895 303.097 82.031 302.893 82.8816 302.917C83.3017 302.926 83.7179 302.998 84.1164 303.131C84.5123 303.261 84.8902 303.44 85.2411 303.664C85.2762 303.686 85.3014 303.721 85.3113 303.762C85.3213 303.802 85.3152 303.845 85.2945 303.881C85.2737 303.917 85.2399 303.943 85.1999 303.955C85.16 303.966 85.1171 303.962 85.0801 303.943L85.0696 303.937C84.7371 303.74 84.381 303.586 84.0099 303.478C83.6422 303.368 83.26 303.315 82.8764 303.32C82.1129 303.324 81.3641 303.529 80.706 303.915L80.6902 303.925C80.663 303.942 80.6325 303.955 80.6005 303.96C80.5684 303.966 80.5356 303.965 80.5038 303.958C80.4721 303.951 80.4421 303.938 80.4157 303.919C80.3892 303.9 80.3669 303.876 80.35 303.848C80.3331 303.82 80.3219 303.79 80.3172 303.758C80.3125 303.725 80.3144 303.693 80.3226 303.661C80.3309 303.63 80.3454 303.6 80.3653 303.575C80.3852 303.549 80.4101 303.528 80.4384 303.512L80.4449 303.508Z" fill="#0C0C0C"/>
<path d="M73.7739 304.731C73.0461 304.501 72.27 304.468 71.5251 304.635C71.1499 304.716 70.7892 304.854 70.4554 305.043C70.118 305.232 69.8057 305.461 69.5257 305.727L69.5169 305.735C69.485 305.759 69.4456 305.77 69.4062 305.766C69.3667 305.763 69.33 305.745 69.3029 305.716C69.2758 305.687 69.2602 305.649 69.2592 305.61C69.2582 305.57 69.2718 305.532 69.2973 305.502C69.5892 305.205 69.9173 304.947 70.2739 304.732C70.6327 304.514 71.0223 304.351 71.4296 304.248C72.2534 304.035 73.1194 304.046 73.9372 304.281C73.9689 304.289 73.9985 304.303 74.0244 304.323C74.0503 304.343 74.072 304.368 74.0881 304.396C74.1042 304.424 74.1144 304.456 74.118 304.488C74.1217 304.52 74.1188 304.553 74.1095 304.584C74.1002 304.615 74.0847 304.644 74.0639 304.669C74.0431 304.694 74.0174 304.715 73.9884 304.73C73.9594 304.745 73.9277 304.754 73.8952 304.756C73.8626 304.759 73.83 304.754 73.7991 304.744H73.7926L73.7739 304.731Z" fill="#0C0C0C"/>
<path opacity="0.52" d="M77.4407 320.738C77.6849 320.728 77.9277 320.697 78.1667 320.647C78.2199 320.633 78.2658 320.6 78.2949 320.554C78.324 320.508 78.3339 320.452 78.3226 320.398C78.3113 320.345 78.2796 320.298 78.2343 320.267C78.1889 320.237 78.1334 320.225 78.0795 320.234C77.7063 320.343 77.3142 320.371 76.9293 320.317C76.5444 320.262 76.1756 320.127 75.8476 319.919C75.8043 319.883 75.7487 319.867 75.693 319.872C75.6373 319.878 75.5862 319.905 75.5508 319.948C75.5154 319.992 75.4986 320.047 75.5042 320.102C75.5098 320.158 75.5373 320.209 75.5806 320.244C76.1247 320.618 76.7821 320.793 77.4407 320.738Z" fill="#0C0C0C"/>
<path opacity="0.1" d="M72.1344 315.251C73.2173 315.213 74.0726 314.54 74.0448 313.748C74.017 312.956 73.1166 312.345 72.0337 312.383C70.9509 312.421 70.0955 313.093 70.1233 313.885C70.1512 314.677 71.0516 315.289 72.1344 315.251Z" fill="#0C0C0C"/>
<path opacity="0.1" d="M83.7235 313.065C83.754 313.856 84.6539 314.466 85.737 314.43C85.9242 314.423 86.1102 314.397 86.292 314.352C86.4203 313.423 86.4987 312.525 86.5415 311.692C86.2499 311.592 85.9423 311.548 85.6345 311.562C84.5538 311.598 83.6989 312.269 83.7235 313.065Z" fill="#0C0C0C"/>
<path d="M107.854 349.261C107.807 353.937 106.197 359.512 105.623 366.249C105.471 368.047 101.6 373.249 101.038 379.034C100.33 386.401 101.905 397.89 102.116 402.858C91.237 408.861 78.9303 411.813 66.5034 411.402C54.0764 410.991 41.9932 407.232 31.5368 400.523C31.2558 387.762 30.9221 372.005 30.4947 368.228C29.1071 355.758 29.4818 347.871 31.4841 344.182C34.757 338.157 40.5825 336.318 46.6773 335.489C50.401 334.987 55.9923 334.631 55.9923 334.631C55.9923 334.631 56.4665 344.188 67.7663 344.719C83.1468 345.443 82.1222 334.631 82.1983 334.631C87.7779 334.631 98.3516 335.962 102.403 338.717C106.701 341.631 107.907 345.087 107.854 349.261Z" fill="#FFC239"/>
<path d="M54.7159 356.534L33.8494 401.939C25.8377 397.223 18.867 390.938 13.3577 383.462L30.7639 345.586L54.7159 356.534Z" fill="#FFC239"/>
<path d="M124.71 382.776C120.622 388.463 115.688 393.494 110.079 397.698C108.232 399.087 106.315 400.381 104.335 401.574L82.9183 354.625L106.9 343.744L124.71 382.776Z" fill="#FFC239"/>
<path d="M211.917 142.806C251.466 142.806 283.527 110.837 283.527 71.4028C283.527 31.9681 251.466 0 211.917 0C172.369 0 140.308 31.9681 140.308 71.4028C140.308 110.837 172.369 142.806 211.917 142.806Z" fill="white"/>
<path opacity="0.09" d="M211.917 142.806C251.466 142.806 283.527 110.837 283.527 71.4028C283.527 31.9681 251.466 0 211.917 0C172.369 0 140.308 31.9681 140.308 71.4028C140.308 110.837 172.369 142.806 211.917 142.806Z" fill="#367CFF"/>
<path d="M225.764 28.6454C225.764 28.6454 230.299 23.7451 229.948 14.4115C229.677 7.18474 223.988 12.9251 223.988 12.9251C223.988 12.9251 223.742 7.72357 220.124 8.89699C216.506 10.0704 215.394 15.7822 215.394 15.7822" fill="#0C0C0C"/>
<path d="M201.046 12.9546C201.046 12.9546 182.987 18.2466 194.162 41.9287L195.811 41.743L199.159 41.3671" fill="#0C0C0C"/>
<path d="M226.639 66.4939C226.557 66.4834 225.643 81.5907 208.042 80.2714C195.857 79.3612 191.512 66.4706 191.233 66.4706C192.547 66.1921 194.17 65.77 194.816 65.6247C196.222 65.2992 197.496 64.5546 198.467 63.4897C199.439 62.4249 200.062 61.0903 200.254 59.6636C200.611 57.5222 200.006 46.5668 200.192 44.4004L218.896 48.5628C218.635 53.1391 216.806 63.7472 223.217 65.6247C224.284 65.9358 225.433 66.2219 226.639 66.4939Z" fill="#E98862"/>
<path opacity="0.52" d="M219.159 61.2899C218.866 60.3484 218.677 59.3778 218.596 58.3954C218.391 56.1536 218.432 53.8961 218.718 51.6632C214.917 51.1515 211.335 49.5868 208.381 47.147C208.033 48.4261 206.124 54.0147 206.652 55.2301C207.652 57.5279 212.349 61.2899 219.159 61.2899Z" fill="#0C0C0C"/>
<path d="M216.105 56.4803C208.728 57.1417 199.206 54.1358 197.296 44.3305L195.573 35.4831C193.664 25.6755 197.281 16.7289 206.54 14.9366C215.799 13.1438 224.267 19.7529 226.177 29.5582L226.938 33.4749C227.177 34.8242 227.323 36.1882 227.375 37.5573C227.54 41.1768 227.777 46.6779 226.032 50.7446C224.386 54.5847 220.82 56.0582 216.105 56.4803Z" fill="#E98862"/>
<path opacity="0.5" d="M217.221 46.7864C218.572 46.7611 219.898 46.4195 221.093 45.7893C221.118 45.7776 221.142 45.7608 221.161 45.7398C221.18 45.7189 221.195 45.6943 221.205 45.6674C221.214 45.6406 221.218 45.6122 221.216 45.5838C221.214 45.5555 221.207 45.5278 221.194 45.5024C221.181 45.477 221.163 45.4545 221.142 45.4362C221.12 45.4179 221.094 45.4041 221.067 45.3958C221.04 45.3875 221.011 45.3848 220.983 45.3878C220.955 45.3908 220.927 45.3995 220.902 45.4134C218.326 46.71 215.909 46.6977 213.914 45.3818C213.874 45.354 213.832 45.3283 213.789 45.3048C213.764 45.2926 213.737 45.2854 213.71 45.2836C213.682 45.2819 213.654 45.2855 213.628 45.2945C213.602 45.3034 213.578 45.3174 213.557 45.3356C213.536 45.3539 213.519 45.376 213.507 45.4008C213.495 45.4256 213.487 45.4526 213.486 45.4802C213.484 45.5077 213.487 45.5354 213.496 45.5615C213.505 45.5877 213.519 45.6118 213.538 45.6326C213.556 45.6533 213.578 45.6703 213.603 45.6825C213.619 45.6912 213.645 45.7088 213.681 45.7327C214.729 46.4275 215.962 46.7944 217.221 46.7864Z" fill="#0C0C0C"/>
<path opacity="0.52" d="M217.286 48.7809C217.53 48.7802 217.774 48.7587 218.015 48.7167C218.042 48.712 218.068 48.7021 218.091 48.6874C218.115 48.6727 218.135 48.6535 218.151 48.631C218.167 48.6085 218.179 48.583 218.185 48.5561C218.191 48.5292 218.192 48.5013 218.187 48.4741C218.182 48.4469 218.172 48.4209 218.158 48.3975C218.143 48.3741 218.124 48.3539 218.101 48.3379C218.078 48.3219 218.053 48.3106 218.026 48.3044C217.999 48.2983 217.971 48.2975 217.944 48.3022C217.567 48.3964 217.174 48.4094 216.791 48.3403C216.409 48.2713 216.045 48.1217 215.725 47.9017C215.683 47.8662 215.629 47.8486 215.574 47.8526C215.519 47.8566 215.468 47.882 215.431 47.9232C215.395 47.9645 215.376 48.0183 215.379 48.0732C215.382 48.1282 215.406 48.1797 215.447 48.2169C215.976 48.6114 216.626 48.8107 217.286 48.7809Z" fill="#0C0C0C"/>
<path d="M223.961 35.9454C224.602 35.9454 225.122 35.4268 225.122 34.7871C225.122 34.1475 224.602 33.6289 223.961 33.6289C223.319 33.6289 222.799 34.1475 222.799 34.7871C222.799 35.4268 223.319 35.9454 223.961 35.9454Z" fill="#0C0C0C"/>
<path d="M212.666 37.2618C213.307 37.2618 213.827 36.7432 213.827 36.1036C213.827 35.4639 213.307 34.9453 212.666 34.9453C212.024 34.9453 211.504 35.4639 211.504 36.1036C211.504 36.7432 212.024 37.2618 212.666 37.2618Z" fill="#0C0C0C"/>
<path d="M198.453 47.2061C195.639 47.7508 192.774 45.1908 192.227 42.3851C191.68 39.5794 193.661 37.5911 196.474 37.0464L198.289 38.6454L200.871 46.7379L198.453 47.2061Z" fill="#E98862"/>
<path d="M200.439 42.1808C200.439 42.1808 198.867 28.1027 202.94 26.4809C205.652 25.4003 213.205 28.1512 219.314 25.8067C221.986 24.7804 224.738 24.9894 225.241 26.2451C225.441 26.7419 225.819 19.0131 220.462 14.1659C216.198 10.307 204.676 11.0794 199.804 13.4764C186.317 20.1135 196.004 37.7621 196.004 37.7621L197.509 42.4418L200.439 42.1808Z" fill="#0C0C0C"/>
<g opacity="0.52">
<path opacity="0.52" d="M218.953 43.3001H218.971C219.878 43.125 221.381 42.7356 221.254 42.059C221.146 41.498 218.444 35.7395 218.137 35.085C218.124 35.0572 218.105 35.0322 218.083 35.0114C218.06 34.9907 218.033 34.9746 218.004 34.9641C217.975 34.9537 217.944 34.949 217.913 34.9504C217.883 34.9519 217.852 34.9593 217.824 34.9724C217.796 34.9854 217.771 35.0039 217.75 35.0266C217.73 35.0494 217.714 35.076 217.703 35.1049C217.693 35.1339 217.688 35.1646 217.689 35.1953C217.691 35.2261 217.698 35.2563 217.711 35.2841C218.909 37.8341 220.718 41.7642 220.792 42.1466C220.734 42.3217 219.825 42.6597 218.886 42.8389C218.824 42.8482 218.768 42.8816 218.73 42.9319C218.693 42.9822 218.677 43.0453 218.686 43.1072C218.696 43.1691 218.729 43.2249 218.78 43.2621C218.83 43.2994 218.893 43.3152 218.955 43.306L218.953 43.3001Z" fill="#0C0C0C"/>
</g>
<path d="M219.594 29.1895C220.502 28.7555 221.511 28.574 222.513 28.6641C223.005 28.7054 223.488 28.8199 223.946 29.0039C224.398 29.1831 224.826 29.4185 225.219 29.7044C225.292 29.7547 225.342 29.8313 225.36 29.918C225.377 30.0047 225.36 30.0948 225.313 30.1693C225.265 30.2438 225.19 30.297 225.104 30.3175C225.017 30.338 224.926 30.3244 224.85 30.2795L224.824 30.2701C224.467 30.0432 224.084 29.8618 223.682 29.7301C223.287 29.5986 222.874 29.5276 222.458 29.5194C221.637 29.4966 220.825 29.6905 220.103 30.0816L220.073 30.0985C220.014 30.1319 219.95 30.1535 219.883 30.162C219.816 30.1704 219.747 30.1657 219.682 30.1479C219.617 30.1302 219.556 30.0998 219.503 30.0585C219.449 30.0172 219.404 29.9658 219.371 29.9073C219.337 29.8488 219.316 29.7842 219.307 29.7174C219.299 29.6505 219.303 29.5826 219.321 29.5176C219.339 29.4525 219.37 29.3917 219.411 29.3384C219.452 29.2851 219.504 29.2405 219.563 29.207L219.594 29.1895Z" fill="#0C0C0C"/>
<path d="M212.934 30.9844C212.144 30.7637 211.309 30.7551 210.513 30.9593C210.109 31.0595 209.723 31.2203 209.367 31.4362C209.004 31.6536 208.67 31.9154 208.372 32.2156L208.353 32.2343C208.289 32.2962 208.203 32.3307 208.114 32.3304C208.024 32.3301 207.939 32.2951 207.875 32.2327C207.811 32.1704 207.774 32.0856 207.772 31.9966C207.77 31.9076 207.803 31.8213 207.864 31.7561C208.183 31.3894 208.547 31.0644 208.948 30.7888C209.353 30.5077 209.799 30.2887 210.269 30.139C210.74 29.9844 211.229 29.8949 211.724 29.8728C212.23 29.845 212.738 29.8891 213.232 30.0036C213.365 30.0346 213.48 30.1169 213.552 30.2325C213.624 30.3481 213.647 30.4875 213.616 30.6201C213.585 30.7526 213.503 30.8674 213.387 30.9392C213.271 31.0111 213.131 31.034 212.998 31.003L212.968 30.9949L212.934 30.9844Z" fill="#0C0C0C"/>
<path d="M216.497 19.8626C218.505 19.051 219.162 16.0034 217.964 13.0556C216.766 10.1078 214.167 8.37609 212.158 9.1877C210.15 9.9993 209.493 13.0469 210.691 15.9947C211.889 18.9424 214.488 20.6742 216.497 19.8626Z" fill="#0C0C0C"/>
<path d="M250.965 82.1049C251.036 86.9445 249.139 92.3854 248.506 99.7529C248.378 101.247 248.073 104.54 247.669 108.831C247.008 115.936 246.071 125.761 245.251 134.617C233.529 140.752 220.333 143.531 207.124 142.647C193.915 141.763 181.21 137.25 170.415 129.608C170.158 129.415 169.9 129.228 169.642 129.047C168.957 119.035 168.149 108.527 167.412 101.89C166.024 89.4957 164.133 83.325 165.193 79.1568C165.278 78.8018 165.391 78.4543 165.532 78.1176C168.583 70.7385 178.296 67.4459 184.877 66.5586C188.893 66.0157 194.935 65.6245 194.935 65.6245C194.935 65.6245 195.444 75.9459 207.64 76.518C224.244 77.3003 223.138 65.6245 223.22 65.6245C225.907 65.6245 240.55 67.5744 244.209 69.9562C244.822 70.3533 245.409 70.7902 245.965 71.2639C247.555 72.5861 248.829 74.2455 249.694 76.121C250.559 77.9964 250.993 80.0408 250.965 82.1049Z" fill="#383838"/>
<path d="M189.83 89.5891L170.415 129.608C170.158 129.415 169.9 129.228 169.642 129.048C162.116 123.545 155.733 116.637 150.849 108.708L165.193 79.1568L165.761 77.9834L189.83 89.5891Z" fill="#383838"/>
<path d="M187.956 94.1955L170.298 129.521C170.181 129.433 170.07 129.351 169.953 129.275L187.587 94.0145C187.613 93.9655 187.656 93.9282 187.709 93.9107C187.761 93.8933 187.818 93.897 187.868 93.9211C187.916 93.9459 187.953 93.9887 187.969 94.0402C187.986 94.0916 187.981 94.1475 187.956 94.1955Z" fill="white"/>
<path d="M277.488 100.15C273.968 108.103 269.026 115.351 262.903 121.54L247.669 108.831L228.319 92.6832L245.965 71.2639L246.018 71.1997L277.488 100.15Z" fill="#383838"/>
<path d="M247.904 108.987C247.954 108.984 248.001 108.964 248.037 108.929C248.072 108.895 248.094 108.849 248.099 108.799L249.104 97.0477C249.109 96.9934 249.092 96.9395 249.057 96.8978C249.021 96.8561 248.971 96.83 248.917 96.8253C248.863 96.8213 248.809 96.8387 248.767 96.8736C248.726 96.9085 248.7 96.9582 248.694 97.0121L247.689 108.764C247.684 108.819 247.702 108.872 247.737 108.914C247.772 108.955 247.822 108.981 247.876 108.986L247.904 108.987Z" fill="white"/>
<path d="M549.107 451.999C586.828 451.999 617.407 421.509 617.407 383.896C617.407 346.284 586.828 315.793 549.107 315.793C511.386 315.793 480.807 346.284 480.807 383.896C480.807 421.509 511.386 451.999 549.107 451.999Z" fill="white"/>
<path opacity="0.09" d="M480.806 383.894C480.806 397.364 484.812 410.531 492.316 421.73C499.821 432.929 510.488 441.658 522.968 446.813C535.448 451.967 549.18 453.316 562.429 450.689C575.678 448.061 587.848 441.575 597.4 432.051C606.951 422.526 613.456 410.392 616.092 397.181C618.727 383.971 617.375 370.278 612.205 357.834C607.036 345.39 598.282 334.753 587.05 327.27C575.818 319.787 562.613 315.793 549.105 315.793C540.127 315.76 531.231 317.499 522.929 320.91C514.628 324.321 507.086 329.336 500.737 335.666C494.388 341.996 489.359 349.517 485.938 357.794C482.517 366.071 480.773 374.942 480.806 383.894Z" fill="#367CFF"/>
<path d="M580.099 346.315C579.008 358.925 580.019 363.2 585.27 370.425C589.699 376.517 564.498 371.339 553.349 369.359L563.188 340.684C563.188 340.684 580.481 341.887 580.099 346.315Z" fill="#0A0A0A"/>
<path d="M541.63 341.068C538.34 353.292 538.709 357.074 532.271 363.494C526.936 368.814 547.731 369.896 558.889 371.829L559.453 341.53C559.453 341.53 542.785 336.776 541.63 341.068Z" fill="#0A0A0A"/>
<path d="M542.739 376.622C542.812 376.612 543.629 390.131 559.379 388.952C570.282 388.138 574.17 376.603 574.42 376.603C573.174 376.396 571.945 376.099 570.743 375.714C569.026 374.794 566.901 373.836 566.348 370.512C566.029 368.596 566.57 358.793 566.404 356.852L549.666 360.577C549.901 364.671 551.54 374.164 545.802 375.843C544.846 376.124 543.818 376.379 542.739 376.622Z" fill="#E98862"/>
<path opacity="0.5" d="M549.432 371.966C549.694 371.124 549.863 370.255 549.935 369.376C550.12 367.37 550.083 365.35 549.827 363.352C553.228 362.894 556.433 361.494 559.077 359.311C559.388 360.456 561.097 365.456 560.624 366.544C559.729 368.6 555.526 371.966 549.432 371.966Z" fill="#0C0C0C"/>
<path d="M551.596 367.755C558.195 368.391 566.733 365.759 568.501 356.997L570.097 349.091C571.866 340.329 568.684 332.3 560.411 330.639C552.137 328.979 544.518 334.843 542.75 343.603L542.044 347.106C541.365 350.465 539.823 366.62 551.596 367.755Z" fill="#E98862"/>
<path d="M578.083 351.587L570.64 350.774C556.076 348.104 552.509 336.385 552.509 336.385C552.509 336.385 546.399 344.518 541.212 342.65C541.212 342.65 542.884 323.04 565.912 326.486C574.96 327.84 580.098 335.319 580.098 345.351C580.098 352.726 578.083 351.587 578.083 351.587Z" fill="#0A0A0A"/>
<path opacity="0.1" d="M557.925 355.066C558.02 354.271 557.217 353.523 556.131 353.394C555.046 353.264 554.088 353.804 553.993 354.598C553.898 355.392 554.701 356.141 555.787 356.27C556.873 356.399 557.83 355.86 557.925 355.066Z" fill="#0C0C0C"/>
<path opacity="0.1" d="M544.319 353.098C544.222 353.891 543.265 354.43 542.179 354.302C541.991 354.279 541.806 354.237 541.627 354.177C541.577 353.231 541.574 352.322 541.602 351.479C541.903 351.404 542.216 351.386 542.524 351.426C543.607 351.553 544.411 352.302 544.319 353.098Z" fill="#0C0C0C"/>
<path opacity="0.5" d="M549.115 355.549H549.099C548.763 355.479 548.433 355.391 548.107 355.285C547.621 355.123 546.986 354.857 547.074 354.419C547.175 353.92 549.634 348.808 549.914 348.227C549.925 348.201 549.942 348.178 549.963 348.158C549.983 348.139 550.008 348.124 550.035 348.114C550.061 348.104 550.09 348.1 550.118 348.101C550.147 348.103 550.175 348.11 550.2 348.122C550.226 348.134 550.249 348.152 550.268 348.173C550.287 348.194 550.301 348.219 550.31 348.246C550.319 348.273 550.323 348.301 550.321 348.33C550.318 348.358 550.311 348.386 550.298 348.411C549.248 350.587 547.559 354.167 547.491 354.503C547.996 354.845 548.576 355.061 549.182 355.133C549.236 355.144 549.283 355.175 549.314 355.22C549.345 355.265 549.358 355.32 549.349 355.374C549.34 355.428 549.311 355.477 549.268 355.51C549.224 355.543 549.169 355.558 549.115 355.552V355.549Z" fill="#0C0C0C"/>
<path d="M567.449 359.564C569.963 360.068 572.542 357.796 573.049 355.288C573.555 352.781 571.796 350.989 569.281 350.485L567.647 351.905L565.287 359.13L567.449 359.564Z" fill="#E98862"/>
<path d="M548.131 344.148C547.82 343.929 547.482 343.752 547.124 343.623C546.762 343.487 546.383 343.402 545.998 343.37C545.612 343.333 545.224 343.355 544.845 343.434C544.462 343.511 544.091 343.637 543.74 343.807L543.729 343.811C543.691 343.825 543.649 343.824 543.612 343.809C543.575 343.793 543.544 343.765 543.527 343.728C543.51 343.692 543.507 343.65 543.518 343.612C543.53 343.573 543.556 343.54 543.59 343.52C543.962 343.324 544.358 343.175 544.767 343.078C545.179 342.978 545.604 342.94 546.027 342.967C546.885 343.014 547.714 343.29 548.428 343.766C548.479 343.803 548.515 343.859 548.526 343.922C548.537 343.984 548.523 344.049 548.487 344.101C548.451 344.154 548.396 344.19 548.334 344.203C548.271 344.216 548.206 344.204 548.152 344.169L548.147 344.165L548.131 344.148Z" fill="#0C0C0C"/>
<path d="M554.907 345.082C555.749 344.915 556.62 344.977 557.431 345.26C557.832 345.398 558.21 345.594 558.552 345.844C558.893 346.09 559.201 346.378 559.47 346.7C559.499 346.732 559.514 346.774 559.512 346.817C559.51 346.86 559.491 346.901 559.459 346.93C559.427 346.959 559.385 346.974 559.342 346.972C559.299 346.97 559.258 346.951 559.229 346.919L559.22 346.911C558.961 346.62 558.666 346.362 558.342 346.145C558.022 345.927 557.671 345.759 557.301 345.646C556.565 345.416 555.782 345.384 555.031 345.553L555.013 345.558C554.95 345.573 554.883 345.563 554.827 345.53C554.772 345.496 554.732 345.442 554.716 345.379C554.701 345.316 554.711 345.25 554.745 345.195C554.778 345.139 554.832 345.099 554.895 345.084L554.907 345.082Z" fill="#0C0C0C"/>
<path d="M517.372 444.212C514.687 443.044 512.678 441.795 508.094 438.35C504.785 435.874 501.71 433.102 498.908 430.068L522.45 385.4L523.473 383.459L544.708 394.591L526.288 429.542L526.204 429.696L526.363 430.318" fill="#EA394A"/>
<path d="M595.666 408.279C595.048 414.903 594.914 425.204 594.957 434.363C586.08 442.392 575.24 447.949 563.526 450.475C551.812 453.001 539.638 452.407 528.227 448.753C526.831 434.941 524.754 414.643 523.584 402.145C522.397 389.198 518.909 384.923 528.43 378.723C533.675 376.06 541.992 375.826 545.729 375.826C544.46 388.097 570.397 389.608 571.041 375.826C590.44 377.635 599.421 378.084 595.666 408.279Z" fill="#EA394A"/>
<path d="M546.903 357.276C549.046 358.363 551.493 358.707 553.855 358.253C553.936 358.237 554.021 358.246 554.098 358.276C554.176 358.307 554.243 358.359 554.292 358.427C554.341 358.494 554.369 358.574 554.374 358.657C554.379 358.74 554.36 358.822 554.319 358.895C553.617 360.132 551.945 362.247 549.08 361.386C547.23 360.829 546.531 358.934 546.27 357.757C546.251 357.676 546.257 357.591 546.286 357.512C546.314 357.434 546.365 357.365 546.431 357.315C546.498 357.264 546.578 357.233 546.661 357.227C546.745 357.22 546.829 357.237 546.903 357.276Z" fill="white"/>
<path d="M546.768 347.769C547.34 347.769 547.804 347.306 547.804 346.736C547.804 346.166 547.34 345.703 546.768 345.703C546.196 345.703 545.733 346.166 545.733 346.736C545.733 347.306 546.196 347.769 546.768 347.769Z" fill="#0C0C0C"/>
<path d="M556.724 349.506C557.296 349.506 557.76 349.044 557.76 348.473C557.76 347.903 557.296 347.44 556.724 347.44C556.152 347.44 555.688 347.903 555.688 348.473C555.688 349.044 556.152 349.506 556.724 349.506Z" fill="#0C0C0C"/>
<path d="M525.877 424.44H525.897C525.939 424.434 525.977 424.411 526.002 424.377C526.028 424.344 526.039 424.301 526.033 424.259L524.202 405.862C524.199 405.841 524.193 405.821 524.182 405.803C524.172 405.784 524.158 405.768 524.141 405.756C524.124 405.743 524.105 405.734 524.084 405.729C524.064 405.724 524.042 405.723 524.022 405.726C524.001 405.729 523.981 405.736 523.962 405.746C523.944 405.757 523.928 405.771 523.916 405.788C523.903 405.804 523.894 405.823 523.889 405.844C523.883 405.864 523.882 405.885 523.885 405.906L525.716 424.303C525.722 424.342 525.741 424.377 525.771 424.402C525.8 424.427 525.838 424.44 525.877 424.44Z" fill="#0C0C0C"/>
<path d="M523.483 410.428H504.789V433.289H523.483V410.428Z" fill="white"/>
<path d="M515.828 421.859C515.828 420.349 516.277 418.873 517.119 417.618C517.96 416.363 519.156 415.385 520.555 414.808C521.954 414.23 523.493 414.079 524.978 414.374C526.463 414.669 527.827 415.396 528.898 416.464C529.968 417.531 530.697 418.892 530.992 420.372C531.287 421.853 531.136 423.388 530.556 424.783C529.976 426.178 528.995 427.37 527.736 428.208C526.477 429.047 524.997 429.494 523.483 429.494C521.453 429.492 519.507 428.687 518.071 427.255C516.636 425.824 515.829 423.883 515.828 421.859ZM518.963 421.859C518.963 422.75 519.228 423.622 519.725 424.363C520.221 425.104 520.927 425.682 521.753 426.023C522.579 426.364 523.488 426.453 524.365 426.279C525.241 426.105 526.047 425.676 526.679 425.046C527.311 424.415 527.741 423.612 527.916 422.738C528.09 421.864 528.001 420.958 527.659 420.134C527.316 419.311 526.737 418.607 525.994 418.112C525.251 417.616 524.377 417.352 523.483 417.352C522.284 417.353 521.136 417.829 520.288 418.674C519.441 419.519 518.964 420.664 518.963 421.859Z" fill="white"/>
<path d="M523.334 424.688C523.397 424.301 523.594 423.949 523.892 423.693C524.189 423.437 524.567 423.293 524.96 423.287C524.949 423.271 524.942 423.254 524.937 423.235L524.38 423.115C523.992 423.038 523.643 422.83 523.391 422.526C523.139 422.222 523 421.841 522.998 421.446C523.001 421.199 523.06 420.955 523.169 420.733C523.279 420.511 523.436 420.316 523.63 420.162C523.825 420.008 524.051 419.899 524.292 419.843C524.534 419.787 524.785 419.785 525.027 419.837L526.341 420.119C526.341 420.115 526.341 420.11 526.341 420.105C526.344 420.094 526.348 420.084 526.352 420.074C526.01 419.914 525.732 419.643 525.565 419.305C525.397 418.967 525.349 418.582 525.428 418.214C525.572 417.245 526.738 416.927 527.591 417.111L530.993 417.718L529.845 416.959C529.483 416.709 529.229 416.331 529.136 415.901C529.042 415.472 529.115 415.023 529.341 414.646C529.464 414.455 529.625 414.291 529.813 414.164C530.002 414.038 530.215 413.951 530.438 413.908C530.662 413.866 530.892 413.87 531.114 413.919C531.336 413.969 531.546 414.063 531.73 414.196L545.441 429.841L542.397 428.464C541.452 429.85 540.114 430.923 538.553 431.545C536.993 432.167 535.282 432.31 533.639 431.956L526.204 430.34C525.815 430.264 525.466 430.056 525.214 429.752C524.962 429.448 524.823 429.066 524.82 428.672C524.826 428.316 524.945 427.971 525.161 427.688C525.377 427.404 525.678 427.197 526.02 427.096C526.009 427.071 526.005 427.043 526.009 427.016C526.013 426.991 526.023 426.967 526.039 426.946C526.055 426.926 526.075 426.91 526.099 426.899L524.726 426.604C524.294 426.52 523.91 426.275 523.651 425.92C523.393 425.564 523.28 425.124 523.334 424.688Z" fill="#E98862"/>
<path opacity="0.2" d="M528.824 420.67C528.86 420.663 528.892 420.643 528.915 420.614C528.937 420.586 528.949 420.55 528.949 420.514C528.948 420.477 528.935 420.442 528.911 420.415C528.887 420.387 528.854 420.368 528.818 420.362L526.521 419.975C526.501 419.97 526.479 419.97 526.459 419.974C526.438 419.978 526.418 419.987 526.4 419.998C526.383 420.01 526.368 420.026 526.356 420.043C526.345 420.061 526.337 420.081 526.334 420.102C526.33 420.123 526.331 420.144 526.336 420.165C526.341 420.185 526.35 420.205 526.362 420.222C526.375 420.239 526.391 420.253 526.409 420.264C526.427 420.274 526.448 420.281 526.469 420.284L528.766 420.672C528.785 420.675 528.805 420.675 528.824 420.67Z" fill="#0C0C0C"/>
<path opacity="0.2" d="M528.27 423.91C528.306 423.903 528.338 423.883 528.36 423.854C528.383 423.826 528.395 423.791 528.395 423.754C528.394 423.718 528.381 423.683 528.357 423.655C528.334 423.627 528.301 423.608 528.265 423.602L525.119 423.046C525.098 423.041 525.076 423.04 525.055 423.044C525.034 423.048 525.014 423.056 524.996 423.068C524.979 423.079 524.963 423.094 524.952 423.112C524.94 423.13 524.932 423.15 524.928 423.171C524.924 423.192 524.925 423.214 524.93 423.234C524.935 423.255 524.944 423.275 524.957 423.292C524.969 423.309 524.985 423.323 525.004 423.334C525.022 423.345 525.043 423.352 525.064 423.354L528.21 423.911C528.23 423.915 528.25 423.914 528.27 423.91Z" fill="#0C0C0C"/>
<path opacity="0.2" d="M527.692 427.422C527.728 427.414 527.76 427.394 527.783 427.365C527.806 427.337 527.818 427.301 527.817 427.264C527.816 427.227 527.802 427.192 527.777 427.164C527.753 427.137 527.72 427.119 527.683 427.113L526.191 426.885C526.151 426.882 526.111 426.893 526.079 426.918C526.047 426.943 526.026 426.978 526.02 427.018C526.014 427.058 526.023 427.098 526.046 427.131C526.069 427.164 526.104 427.187 526.143 427.195L527.636 427.424C527.654 427.427 527.673 427.426 527.692 427.422Z" fill="#0C0C0C"/>
<path d="M605.19 422.754C596.778 434.816 584.689 443.852 570.719 448.52L570.713 448.514C567.61 447.909 538.009 436.255 534.094 435.489L538.378 415.559C549.379 417.742 569.444 426.157 580.507 428.348L572.702 393.06C572.419 391.501 572.449 389.902 572.791 388.355C573.133 386.808 573.779 385.344 574.693 384.048C575.606 382.752 576.768 381.65 578.112 380.805C579.456 379.96 580.955 379.39 582.522 379.127C584.088 378.864 585.691 378.914 587.239 379.274C588.786 379.634 590.246 380.297 591.534 381.223C592.823 382.15 593.914 383.323 594.744 384.673C595.575 386.023 596.128 387.525 596.372 389.09L605.19 422.754Z" fill="#EA394A"/>
<path d="M588.893 430.945C588.933 430.945 588.971 430.929 589 430.902C589.029 430.874 589.047 430.837 589.05 430.798C589.053 430.758 589.041 430.719 589.016 430.687C588.992 430.656 588.956 430.635 588.917 430.628L580.599 427.814C580.578 427.811 580.556 427.811 580.536 427.816C580.515 427.821 580.496 427.83 580.479 427.843C580.462 427.855 580.448 427.871 580.437 427.889C580.426 427.907 580.419 427.927 580.417 427.948C580.41 427.99 580.421 428.033 580.446 428.067C580.472 428.101 580.509 428.123 580.551 428.129L588.87 430.943C588.877 430.945 588.885 430.946 588.893 430.945Z" fill="#0C0C0C"/>
<path d="M580.726 427.949C580.731 427.999 580.716 428.049 580.684 428.087C580.665 428.105 580.643 428.118 580.619 428.125C580.595 428.132 580.57 428.134 580.545 428.13L538.644 415.799L534.445 435.414L570.527 448.577C570.415 448.615 570.297 448.651 570.185 448.689C570.105 448.716 570.025 448.742 569.94 448.763L534.211 435.682C534.17 435.672 534.136 435.646 534.114 435.61C534.092 435.574 534.085 435.532 534.093 435.491L538.378 415.561C538.383 415.541 538.392 415.522 538.405 415.505C538.418 415.489 538.434 415.475 538.452 415.465C538.47 415.453 538.49 415.445 538.511 415.441C538.533 415.437 538.555 415.438 538.575 415.444L580.374 427.791L575.643 408.337C575.637 408.296 575.648 408.254 575.673 408.22C575.697 408.186 575.735 408.164 575.776 408.157C575.797 408.153 575.818 408.153 575.839 408.157C575.859 408.161 575.879 408.17 575.896 408.181C575.914 408.193 575.928 408.208 575.94 408.226C575.951 408.244 575.959 408.263 575.963 408.284L580.726 427.949Z" fill="#0C0C0C"/>
<path d="M34.3483 402.527C34.3093 402.527 34.2707 402.52 34.2347 402.505C34.1992 402.49 34.1671 402.468 34.14 402.441C34.113 402.414 34.0916 402.381 34.0771 402.346C34.0626 402.31 34.0552 402.272 34.0554 402.234C34.0556 402.196 34.0634 402.158 34.0784 402.122L45.5502 374.933C45.5804 374.862 45.6378 374.806 45.7098 374.776C45.7818 374.747 45.8624 374.748 45.934 374.778C46.0056 374.808 46.0623 374.865 46.0915 374.937C46.1208 375.009 46.1203 375.089 46.0901 375.161L34.6182 402.348C34.5959 402.401 34.5584 402.447 34.5104 402.478C34.4624 402.51 34.406 402.527 34.3483 402.527Z" fill="#0C0C0C"/>
<path d="M101.853 402.836H101.84C101.802 402.838 101.763 402.832 101.727 402.819C101.691 402.806 101.658 402.786 101.629 402.76C101.601 402.734 101.578 402.703 101.562 402.668C101.545 402.634 101.536 402.596 101.534 402.558L100.256 374.749C100.255 374.673 100.283 374.599 100.335 374.542C100.386 374.485 100.458 374.45 100.534 374.444C100.573 374.442 100.611 374.448 100.647 374.461C100.684 374.474 100.717 374.494 100.745 374.52C100.774 374.546 100.797 374.577 100.813 374.612C100.83 374.647 100.839 374.684 100.841 374.723L102.119 402.531C102.123 402.606 102.097 402.68 102.048 402.737C101.998 402.794 101.928 402.83 101.853 402.836Z" fill="#0C0C0C"/>
</g>
<defs>
<clipPath id="clip0_77_1389">
<rect width="653" height="452" fill="white"/>
</clipPath>
</defs>
</svg>
